<?xml version="1.0" encoding="utf-8"?>
<!-- Generator: Adobe Illustrator 16.0.0, SVG Export Plug-In . SVG Version: 6.00 Build 0)  -->
<!DOCTYPE svg PUBLIC "-//W3C//DTD SVG 1.1//EN" "http://www.w3.org/Graphics/SVG/1.1/DTD/svg11.dtd">
<svg version="1.1" id="图层_1" xmlns="http://www.w3.org/2000/svg" xmlns:xlink="http://www.w3.org/1999/xlink" x="0px" y="0px"
	 width="174px" height="27px" viewBox="0 0 174 27" enable-background="new 0 0 174 27" xml:space="preserve">
<path fill="#E51816" d="M25.342,15.144H24.15c-0.299,0-0.541-0.243-0.541-0.547V8.378c0-0.331,0.298-0.552,0.625-0.506
	c0.455,0.066,0.845-0.287,0.845-0.731V4.89c0-0.303-0.244-0.546-0.542-0.546h-1.904c0.111-0.126,0.213-0.262,0.305-0.411
	c0.353-0.481,0.663-1.09,0.928-1.831c0.127-0.352-0.134-0.729-0.508-0.73l-3.35-0.024c-0.25-0.001-0.466,0.17-0.529,0.415
	c-0.128,0.501-0.28,0.983-0.454,1.445c-0.119,0.302-0.25,0.584-0.387,0.843c-0.097,0.18-0.28,0.293-0.481,0.293h-2.653
	c-0.239-0.46-0.563-1.258-0.904-2.613c-0.061-0.244-0.283-0.416-0.531-0.416H10.66c-0.394,0-0.662,0.403-0.508,0.77
	c0.255,0.608,0.683,1.488,1.299,2.259H9.426c-0.299,0-0.542,0.243-0.542,0.546v2.444c0,0.302,0.242,0.546,0.542,0.546h0.581
	c0.298,0,0.542,0.245,0.542,0.545c-0.004,1.817-0.028,3.877-0.072,6.181c-0.005,0.298-0.248,0.537-0.542,0.537H8.76
	c-0.3,0-0.542,0.244-0.542,0.547v2.411c0,0.304,0.242,0.547,0.542,0.547h0.971c0.32,0,0.574,0.28,0.541,0.602
	c-0.222,2.221-0.646,4.203-1.274,5.947c-0.104,0.29,0.041,0.611,0.332,0.71l2.188,0.763c0.218,0.074,0.461,0.01,0.603-0.176
	c1.408-1.838,2.227-4.248,2.456-7.234c0.009-0.108,0.022-0.611,0.528-0.611h3.579c0.3,0,0.542,0.245,0.542,0.546v6.771
	c0,0.302,0.242,0.547,0.541,0.547h3.301c0.299,0,0.542-0.245,0.542-0.547v-6.771c0-0.301,0.242-0.546,0.541-0.546h1.192
	c0.298,0,0.542-0.243,0.542-0.547V15.69C25.884,15.388,25.64,15.144,25.342,15.144 M19.226,14.994c0,0.08-0.068,0.149-0.149,0.149
	h-4.13c-0.084,0-0.151-0.069-0.149-0.151c0.054-1.763,0.106-4.083,0.159-6.961c0.003-0.083,0.069-0.15,0.15-0.15h3.97
	c0.082,0,0.149,0.067,0.149,0.15V14.994z"/>
<path fill="#E51816" d="M6.699,1.739H3.406c-0.31,0-0.561,0.25-0.561,0.562v1.755c0,0.159-0.13,0.29-0.291,0.29H1.078
	c-0.216,0-0.382,0.193-0.348,0.407l0.448,2.802c0.026,0.169,0.174,0.296,0.348,0.296h1.029c0.161,0,0.291,0.131,0.291,0.292v4.977
	c0,0.118-0.07,0.224-0.176,0.271l-1.89,0.826c-0.097,0.042-0.146,0.153-0.114,0.253l0.994,3.2c0.036,0.119,0.167,0.181,0.281,0.13
	l0.875-0.368c0.014-0.006,0.031,0.004,0.031,0.021v4.418c0.019,0.507-0.044,0.866-0.224,1.042c-0.364,0.364-1.442,0.532-2.068,0.604
	c-0.246,0.029-0.412,0.264-0.354,0.503l0.529,2.184c0.045,0.182,0.207,0.312,0.394,0.312h1.945c3.954,0,4.156-4.213,4.194-5.22V2.3
	C7.262,1.989,7.009,1.739,6.699,1.739"/>
<path fill="#E51816" d="M52.424,14.345h-7.555c-0.258,0-0.375-0.33-0.179-0.503l1.083-0.947c0.19-0.164,0.089-0.483-0.157-0.501
	l-3.198-0.241c5.609-2.484,9.058-5.215,9.058-5.625c0-0.479,0.047-1.922,0.074-2.69c0.008-0.271-0.2-0.491-0.462-0.491h-8.885
	c-0.258,0-0.376-0.332-0.18-0.504l1.084-0.945c0.189-0.165,0.092-0.484-0.454-0.525l-3.349-0.252
	c-0.294-0.023-0.583,0.082-0.795,0.29c-2.354,2.313-7.53,4.396-9.007,5.061c-0.167,0.074-0.214,0.293-0.092,0.433
	c0.419,0.486,1.085,1.438,1.58,2.271c0.242,0.405,0.73,0.583,1.156,0.401c1.676-0.717,4.398-2.476,4.852-2.77
	c0.044-0.03,0.094-0.045,0.146-0.045h6.954c0.283,0,0.386,0.389,0.142,0.536c-1.195,0.73-2.493,1.352-3.813,1.882
	c-0.507-0.462-1.165-1.059-1.658-1.483c-0.33-0.285-0.795-0.33-1.17-0.111c-0.633,0.367-1.498,0.86-1.972,1.13
	c-0.167,0.097-0.192,0.33-0.052,0.461c0.313,0.288,0.821,0.772,1.236,1.236c-3.601,1.041-6.833,1.495-8.02,1.716
	c-0.188,0.037-0.282,0.253-0.181,0.419c0.285,0.486,0.471,1.18,0.993,2.573c0.161,0.43,0.595,0.692,1.037,0.618
	c3.634-0.622,6.951-1.634,9.819-2.764c-2.947,2.091-9.063,3.906-10.733,4.508c-0.182,0.065-0.24,0.295-0.111,0.446
	c0.425,0.497,1.092,1.456,1.581,2.282c0.227,0.382,0.672,0.558,1.088,0.425c2.138-0.692,6.864-2.631,7.398-2.853
	c0.032-0.014,0.068-0.022,0.103-0.022h4.496c0.284,0,0.387,0.388,0.145,0.537c-0.954,0.583-1.972,1.094-3.014,1.546
	c-0.348-0.315-0.745-0.66-1.177-1.002c-0.327-0.259-0.773-0.287-1.131-0.08c-0.636,0.372-1.521,0.877-1.999,1.146
	c-0.167,0.098-0.193,0.333-0.053,0.463c0.21,0.194,0.508,0.476,0.808,0.779c-3.938,1.229-7.601,1.737-8.882,1.977
	c-0.189,0.037-0.285,0.255-0.183,0.423c0.287,0.483,0.47,1.181,0.991,2.57c0.162,0.43,0.595,0.695,1.039,0.618
	c12.215-2.085,22.063-8.555,22.063-9.208V14.82C52.887,14.559,52.679,14.345,52.424,14.345"/>
<path fill="#E51816" d="M78.769,14.345h-7.557c-0.258,0-0.375-0.33-0.178-0.503l1.083-0.947c0.19-0.164,0.09-0.483-0.159-0.501
	l-3.197-0.241c5.609-2.484,9.058-5.215,9.058-5.625c0-0.479,0.048-1.922,0.073-2.69c0.009-0.271-0.2-0.491-0.46-0.491h-8.887
	c-0.258,0-0.377-0.332-0.179-0.504l1.083-0.945c0.189-0.165,0.089-0.484-0.454-0.525l-3.35-0.252
	c-0.294-0.023-0.582,0.082-0.795,0.29c-2.354,2.313-7.528,4.396-9.006,5.061c-0.167,0.074-0.213,0.293-0.092,0.433
	c0.418,0.486,1.085,1.438,1.58,2.271c0.241,0.405,0.73,0.583,1.157,0.401c1.675-0.717,4.396-2.476,4.851-2.77
	c0.044-0.03,0.094-0.045,0.148-0.045h6.953c0.281,0,0.385,0.389,0.143,0.536c-1.195,0.73-2.493,1.352-3.813,1.882
	c-0.508-0.462-1.165-1.059-1.658-1.483c-0.33-0.285-0.796-0.33-1.172-0.111c-0.633,0.367-1.498,0.86-1.97,1.13
	c-0.167,0.097-0.193,0.33-0.052,0.461c0.312,0.288,0.82,0.772,1.235,1.236c-3.6,1.041-6.834,1.495-8.018,1.716
	c-0.189,0.037-0.284,0.253-0.183,0.419c0.286,0.486,0.471,1.18,0.993,2.573c0.161,0.43,0.594,0.692,1.036,0.618
	c3.635-0.622,6.951-1.634,9.82-2.764c-2.948,2.091-9.063,3.906-10.732,4.508c-0.182,0.065-0.242,0.295-0.113,0.446
	c0.425,0.497,1.093,1.456,1.582,2.282c0.226,0.382,0.673,0.558,1.086,0.425c2.14-0.692,6.867-2.631,7.4-2.853
	c0.032-0.014,0.069-0.02,0.104-0.02h4.496c0.283,0,0.387,0.385,0.143,0.534c-0.952,0.583-1.97,1.094-3.013,1.546
	c-0.347-0.315-0.745-0.66-1.177-1.002c-0.327-0.259-0.772-0.287-1.132-0.08c-0.636,0.372-1.52,0.877-2,1.146
	c-0.167,0.098-0.193,0.333-0.051,0.463c0.209,0.194,0.509,0.476,0.807,0.779c-3.938,1.229-7.599,1.737-8.881,1.977
	c-0.188,0.037-0.284,0.255-0.183,0.423c0.286,0.483,0.47,1.181,0.991,2.57c0.162,0.43,0.597,0.695,1.039,0.618
	c12.215-2.085,22.064-8.555,22.064-9.208V14.82C79.23,14.559,79.023,14.345,78.769,14.345"/>
<g>
	<path fill="#FFFFFF" d="M88.521,10.084c0-0.125-0.032-0.249-0.094-0.375c-0.126-0.812-0.313-1.437-0.563-1.875h-1.313
		c-0.75,1.125-2.125,1.969-4.125,2.531V9.053c1.688-0.812,2.719-2.124,3.094-3.938h2.156c-0.063,0.501-0.188,0.938-0.375,1.313
		h5.813v1.406h-3.281c0,0.063,0.031,0.157,0.094,0.281c0.313,0.813,0.5,1.469,0.563,1.969H88.521z M98.833,9.99
		c-0.063-0.75-0.25-1.468-0.563-2.156h-1.5c-0.438,0.688-1.281,1.345-2.531,1.969h0.094v1.313h8.813v3.375h-2.438v-1.875H85.333
		v1.781h15.281v2.344c0.062,1.813-0.75,2.688-2.438,2.625h-10.5v1.688h13.594v2.531c0.062,1.813-0.844,2.687-2.719,2.625H85.239
		V14.49h-2.344v-3.375h8.719V9.803h1.219V8.959c1.562-0.75,2.469-2.03,2.719-3.844h2.25c-0.063,0.501-0.188,0.938-0.375,1.313h6.375
		v1.406h-3.563c0.249,0.688,0.469,1.406,0.656,2.156H98.833z M87.677,15.803v2.156h9.563c0.75,0.063,1.093-0.313,1.031-1.125v-1.031
		H87.677z M98.927,22.459h-11.25v2.25h10.031c0.875,0.062,1.28-0.281,1.219-1.031V22.459z"/>
	<path fill="#FFFFFF" d="M105.64,8.115V6.521h7.125v1.594h-2.344v5.625h2.156v1.594h-2.156v6.656
		c0.75-0.188,1.562-0.469,2.438-0.844v1.688c-1.813,0.876-4.251,1.5-7.313,1.875v-1.875c0.938-0.062,1.781-0.188,2.531-0.375v-7.125
		h-2.25V13.74h2.25V8.115H105.64z M113.796,16.928V6.053h12.469v8.063c0.062,1.938-0.876,2.875-2.813,2.813h-2.25v2.625h5.344v1.688
		h-5.344v3.094h6.281v1.5h-15.188v-1.5h6.563V21.24h-5.344v-1.688h5.344v-2.625H113.796z M115.952,7.74v2.813h2.906V7.74H115.952z
		 M115.952,15.334h2.906V12.24h-2.906V15.334z M124.108,7.74h-2.906v2.813h2.906V7.74z M122.796,15.334
		c0.938,0.063,1.374-0.406,1.313-1.406V12.24h-2.906v3.094H122.796z"/>
	<path fill="#FFFFFF" d="M129.227,26.678v-1.781c1.437-1.25,2.093-3.563,1.969-6.938V6.334h11.25
		c2.438,0.063,4.843-0.249,7.219-0.938v1.875c-1.938,0.501-4.251,0.75-6.938,0.75h-9v3.375h16.875v1.688h-16.875v4.125
		C133.976,21.835,132.476,24.99,129.227,26.678z M135.508,25.834v-9.375h13.406v6.469c0.062,2-1.031,2.968-3.281,2.906H135.508z
		 M138.039,24.334h6.844c1.125,0,1.655-0.563,1.594-1.688v-4.5h-8.438V24.334z"/>
	<path fill="#FFFFFF" d="M170.721,14.959c-0.188-0.5-0.375-1.031-0.563-1.594c-3.876,0.501-8.625,0.75-14.25,0.75h-2.25v-1.969
		c2.438-1.875,4.406-4.219,5.906-7.031h3.094c-1.875,3.063-4.001,5.407-6.375,7.031c5.438,0.126,9.844,0,13.219-0.375
		c-0.501-1.125-1.125-2.344-1.875-3.656h2.25c1.437,2.25,2.531,4.532,3.281,6.844H170.721z M154.877,25.928v-9.469h16.781v6.469
		c0.062,2.063-1.031,3.062-3.281,3H154.877z M157.408,24.334h10.219c1.062,0,1.562-0.5,1.5-1.5v-4.688h-11.719V24.334z"/>
</g>
</svg>
